# xmcd CD database file
#
# Track frame offsets:
#	150
#	6308
#	26941
#	50332
#	71341
#	84737
#	107010
#	127145
#	147652
#	167476
#	188847
#	208253
#	228523
#	249267
#
# Disc length: 3478 seconds
#
# Revision: 1
# Processed by: cddbd v1.4PL0 Copyright (c) Steve Scherf et al.
# Submitted via: CDex 1.51
#
DISCID=ca0d940e
DTITLE=Chillout - India
DYEAR=2002
DGENRE=New Age
TTITLE0=Eli Kazah - The search is over
TTITLE1=Amira Alaf - Aldalá
TTITLE2=Lazy Action - You are the sunshine
TTITLE3=Deep B - Juice
TTITLE4=Biyaba - Tibet's Sun
TTITLE5=Eli Kazah - Return home
TTITLE6=Oralya Kas - Myati
TTITLE7=Zoia Vitkovskaia - Mope Okerh
TTITLE8=Freedom Dub - Into the Universe
TTITLE9=First Street - Kashmir Ju - Ju
TTITLE10=Le Griser - Sanctis
TTITLE11=Sao Vicente - Ishtar
TTITLE12=Marischal Foch - Deep Stuff
TTITLE13=Love Reprise - Miracle City
EXTD=YEAR: 2002
EXTT0=
EXTT1=
EXTT2=
EXTT3=
EXTT4=
EXTT5=
EXTT6=
EXTT7=
EXTT8=
EXTT9=
EXTT10=
EXTT11=
EXTT12=
EXTT13=
PLAYORDER=
